<?xml version="1.0" encoding="UTF-8" standalone="no"?>
<!DOCTYPE svg PUBLIC "-//W3C//DTD SVG 1.1//EN" "http://www.w3.org/Graphics/SVG/1.1/DTD/svg11.dtd">
<svg version="1.1" xmlns="http://www.w3.org/2000/svg" xmlns:xlink="http://www.w3.org/1999/xlink" preserveAspectRatio="xMidYMid meet" viewBox="0 0 230 230" width="230" height="230"><defs><path d="M117.62 0L124.04 0L124.04 82.64L117.62 82.64L117.62 0Z" id="e2d2ubSvv1"></path><path d="M209.07 81.41C211.19 81.67 212.69 83.6 212.44 85.71C209.98 105.84 203.06 162.41 200.6 182.54C200.35 184.66 198.42 186.16 196.31 185.9C160.91 181.58 58.57 169.08 23.18 164.75C21.06 164.49 19.56 162.57 19.82 160.45C22.28 140.32 29.19 83.76 31.65 63.62C31.9 61.51 33.83 60 35.94 60.26C71.34 64.59 173.68 77.09 209.07 81.41Z" id="b1dj2jHrAJ"></path><path d="M123.24 89.53L156.31 93.58L152.27 126.65L119.2 122.61L123.24 89.53Z" id="a1eXLe76cK"></path><path d="M57.47 94.55L70.05 96.09L64.91 138.19L52.32 136.65L57.47 94.55Z" id="a3vCp3RhH5"></path><path d="M83.01 112.65L81.47 125.24L39.37 120.09L40.9 107.5L83.01 112.65Z" id="e1KFwOo3XZ"></path><path d="M162.5 139.98C161.82 145.49 156.8 149.42 151.29 148.75C145.78 148.07 141.85 143.05 142.53 137.54C143.2 132.03 148.22 128.11 153.73 128.78C159.24 129.45 163.17 134.47 162.5 139.98Z" id="g1HoMllVf"></path><path d="M189.08 120.76C188.4 126.27 183.38 130.2 177.87 129.52C172.36 128.85 168.43 123.83 169.11 118.32C169.78 112.81 174.8 108.88 180.31 109.56C185.82 110.23 189.75 115.25 189.08 120.76Z" id="d1bPpFJcHI"></path><path d="" id="d2oihPM8yg"></path></defs><g><g><g><use xlink:href="#e2d2ubSvv1" opacity="1" fill="#005baa" fill-opacity="1"></use></g><g><use xlink:href="#b1dj2jHrAJ" opacity="1" fill="#0074d9" fill-opacity="1"></use></g><g><use xlink:href="#a1eXLe76cK" opacity="1" fill="#0074d9" fill-opacity="1"></use></g><g><use xlink:href="#a3vCp3RhH5" opacity="1" fill="#ffffff" fill-opacity="1"></use></g><g><use xlink:href="#e1KFwOo3XZ" opacity="1" fill="#ffffff" fill-opacity="1"></use></g><g><use xlink:href="#g1HoMllVf" opacity="1" fill="#ffffff" fill-opacity="1"></use></g><g><use xlink:href="#d1bPpFJcHI" opacity="1" fill="#ffffff" fill-opacity="1"></use></g><g><g><use xlink:href="#d2oihPM8yg" opacity="1" fill-opacity="0" stroke="#000000" stroke-width="1" stroke-opacity="1"></use></g></g></g></g></svg>